<svg width="150" height="57" viewBox="0 0 150 57" fill="none" xmlns="http://www.w3.org/2000/svg">
    <g clip-path="url(#clip0_228_1952)">
        <path
            d="M28.3329 1.72656L15.0132 18.527L4.18391 13.9545L0.0705566 19.5787V57.3623H34.8459V5.69844L28.3329 1.72923V1.72656ZM33.2283 35.0285V55.742H1.68814V46.9281L17.6611 53.8842L33.2283 35.0258V35.0285ZM13.9695 19.8403L11.0813 23.4812L1.83762 19.899L4.73378 15.9378L13.9695 19.8376V19.8403ZM12.6615 24.0924L28.7119 3.85131L32.8119 6.34975L16.6414 25.6326L12.6615 24.0924Z"
            fill="#232323" />
        <path
            d="M49.6923 10.844C51.8144 10.844 53.3519 11.3378 54.3021 12.3254C55.2524 13.3131 55.7275 14.8052 55.7275 16.8045V17.7307C55.7275 19.0627 55.5166 20.1624 55.0976 21.0246C54.6785 21.8895 54.0112 22.5301 53.0983 22.9492C54.2087 23.3682 54.9908 24.0542 55.4499 25.0045C55.9064 25.9548 56.1359 27.1212 56.1359 28.5039V30.6153C56.1359 32.6146 55.6181 34.1388 54.5797 35.1878C53.544 36.2368 52.0012 36.76 49.9512 36.76H43.5476V10.844H49.6923ZM47.6183 14.5463V21.3956H49.2091C49.9752 21.3956 50.5731 21.1981 51.0056 20.8031C51.438 20.408 51.6542 19.6926 51.6542 18.657V17.2129C51.6542 16.276 51.4887 15.598 51.155 15.1762C50.8214 14.7572 50.2982 14.5463 49.5802 14.5463H47.6183ZM47.6183 25.0979V33.0577H49.9512C50.6425 33.0577 51.1657 32.8735 51.5261 32.5025C51.8838 32.1315 52.0626 31.4668 52.0626 30.5032V28.245C52.0626 27.0358 51.8597 26.2083 51.4513 25.7652C51.0429 25.3221 50.3703 25.0979 49.4334 25.0979H47.6183Z"
            fill="#232323" />
        <path
            d="M61.987 21.7667H67.5765V25.469H61.987V33.0577H69.0206V36.76H57.9137V10.844H69.0206V14.5463H61.987V21.7667Z"
            fill="#232323" />
        <path
            d="M76.142 26.4299L74.8821 28.8002V36.76H70.8088V10.844H74.8821V22.135L80.2127 10.844H84.286L78.6218 22.394L84.286 36.7573H80.1033L76.142 26.4272V26.4299Z"
            fill="#232323" />
        <path d="M85.2471 10.844H97.8354V14.5463H93.5779V36.76H89.5046V14.5463H85.2471V10.844Z"
            fill="#232323" />
        <path
            d="M105.312 10.8467C107.359 10.8467 108.883 11.3912 109.884 12.4749C110.883 13.5613 111.385 15.1522 111.385 17.2503V20.6189C111.385 22.7169 110.885 24.3078 109.884 25.3942C108.886 26.4806 107.359 27.0225 105.312 27.0225H103.387V36.76H99.3141V10.844H105.312V10.8467ZM103.387 14.5489V23.3229H105.312C105.953 23.3229 106.446 23.1494 106.793 22.805C107.14 22.4607 107.311 21.8174 107.311 20.8805V16.994C107.311 16.0571 107.138 15.4138 106.793 15.0695C106.446 14.7251 105.955 14.5516 105.312 14.5516H103.387V14.5489Z"
            fill="#232323" />
        <path
            d="M125.404 36.76H121.293L120.591 32.0594H115.594L114.892 36.76H111.152L115.298 10.844H121.258L125.404 36.76ZM116.112 28.5413H120.036L118.074 15.4351L116.112 28.5413Z"
            fill="#232323" />
        <path d="M43.5476 48.1074V42.219H46.7908V42.9477H44.3377V48.1074H43.5476Z" fill="#232323" />
        <path
            d="M47.645 48.1074V42.219H49.7003C50.1114 42.219 50.4744 42.2884 50.7894 42.4299C51.1044 42.5713 51.35 42.7715 51.5261 43.0385C51.7023 43.3054 51.7931 43.6204 51.7931 43.9914C51.7931 44.3624 51.7103 44.6907 51.5448 44.9497C51.3793 45.2086 51.1391 45.4088 50.8268 45.5449C50.5145 45.681 50.1301 45.7478 49.6817 45.7478H48.4324V48.1074H47.6423H47.645ZM48.4351 45.0538H49.7084C50.1194 45.0538 50.4397 44.9657 50.664 44.7922C50.8882 44.6187 51.003 44.3571 51.003 44.0047C51.003 43.6524 50.8882 43.3961 50.6559 43.2066C50.4237 43.0171 50.1114 42.921 49.7164 42.921H48.4324V45.0538H48.4351Z"
            fill="#232323" />
        <path
            d="M54.3982 46.1802L52.1641 42.219H53.1303L54.9214 45.4648L54.3956 46.1802H54.3982ZM52.6659 48.1982L52.3349 47.4668C52.6472 47.3894 52.9301 47.2693 53.1864 47.1144C53.4426 46.957 53.6802 46.7514 53.8938 46.4952C54.11 46.2389 54.3075 45.9266 54.4863 45.5583L56.1306 42.219H57.0435L55.2471 45.7478C55.0602 46.1215 54.868 46.4471 54.6785 46.7221C54.4863 46.9997 54.2888 47.2346 54.0806 47.4294C53.8751 47.6243 53.6562 47.7844 53.4213 47.9099C53.1891 48.0353 52.9355 48.1314 52.6632 48.1982H52.6659Z"
            fill="#232323" />
        <path
            d="M57.7961 48.1074V42.219H62.406V48.1074H61.6159V42.9477H58.5889V48.1074H57.7988H57.7961Z"
            fill="#232323" />
        <path
            d="M63.7727 48.1074V42.219H68.3826V48.1074H67.5924V42.9477H64.5655V48.1074H63.7754H63.7727Z"
            fill="#232323" />
        <path
            d="M69.1699 48.1074L71.4868 42.219H72.3063L74.6953 48.1074H73.8038L73.2192 46.6313H70.5953L70.0348 48.1074H69.1672H69.1699ZM70.8195 45.9426H72.9896L71.8792 43.2013L70.8195 45.9426Z"
            fill="#232323" />
        <path
            d="M77.6982 48.1074V42.219H78.4883V44.6107H79.5721V45.3394H78.4883V48.1074H77.6982ZM81.3525 48.1074L78.9261 44.979L81.0669 42.219H82.0331L79.887 44.9683L82.3721 48.1047H81.3498L81.3525 48.1074Z"
            fill="#232323" />
        <path
            d="M85.5166 48.2333C85.0762 48.2333 84.6704 48.1559 84.2941 48.0011C83.9204 47.8463 83.5921 47.6301 83.3145 47.3525C83.0342 47.0749 82.818 46.7492 82.6658 46.3755C82.5137 46.0018 82.4336 45.5988 82.4336 45.1637C82.4336 44.7286 82.511 44.3202 82.6658 43.9491C82.8206 43.5754 83.0368 43.2498 83.3145 42.9749C83.5921 42.6973 83.9204 42.481 84.2941 42.3262C84.6678 42.1714 85.0762 42.094 85.5166 42.094C85.957 42.094 86.3601 42.1714 86.7311 42.3289C87.1048 42.4864 87.4305 42.7053 87.7108 42.9855C87.991 43.2658 88.2099 43.5915 88.3647 43.9625C88.5195 44.3335 88.597 44.7339 88.597 45.1637C88.597 45.5934 88.5195 46.0018 88.3647 46.3755C88.2099 46.7492 87.991 47.0749 87.7108 47.3525C87.4305 47.6301 87.1048 47.8463 86.7311 48.0011C86.3574 48.1559 85.9517 48.2333 85.5166 48.2333ZM85.5166 47.4806C85.8342 47.4806 86.1279 47.4245 86.4028 47.3178C86.6777 47.211 86.9153 47.0535 87.1208 46.848C87.3264 46.6451 87.4865 46.3995 87.6013 46.1139C87.7188 45.8283 87.7748 45.5107 87.7748 45.1637C87.7748 44.6965 87.6734 44.2881 87.4732 43.9411C87.273 43.5941 87.0007 43.3245 86.6591 43.1323C86.3174 42.9402 85.9357 42.8441 85.5139 42.8441C85.1963 42.8441 84.9027 42.9001 84.6277 43.0096C84.3555 43.1217 84.1152 43.2765 83.9097 43.482C83.7042 43.6876 83.544 43.9305 83.4292 44.2134C83.3145 44.499 83.2557 44.8167 83.2557 45.1663C83.2557 45.6308 83.3572 46.0392 83.5574 46.3862C83.7576 46.7332 84.0298 47.0028 84.3715 47.195C84.7132 47.3872 85.0949 47.4833 85.5166 47.4833V47.4806Z"
            fill="#232323" />
        <path
            d="M89.5979 48.1074V42.219H90.3667L92.8224 46.1935H92.5208L94.8937 42.219H95.6411V48.1074H94.867L94.8751 43.2974L95.0299 43.3481L92.9265 46.7835H92.3179L90.1905 43.3481L90.3133 43.2974L90.3213 48.1074H89.5979Z"
            fill="#232323" />
        <path
            d="M97.0078 48.1074V42.219H101.618V48.1074H100.828V42.9477H97.8006V48.1074H97.0105H97.0078Z"
            fill="#232323" />
        <path
            d="M102.408 48.1074L104.725 42.219H105.544L107.933 48.1074H107.042L106.457 46.6313H103.833L103.273 48.1074H102.405H102.408ZM104.058 45.9426H106.228L105.117 43.2013L104.058 45.9426Z"
            fill="#232323" />
        <path
            d="M108.721 48.1074V42.219H109.511V44.6107H112.538V42.219H113.328V48.1074H112.538V45.3394H109.511V48.1074H108.721Z"
            fill="#232323" />
        <path
            d="M114.695 48.1074V42.219H115.482V46.7861L118.616 42.219H119.363V48.1074H118.576V43.5109L115.434 48.1074H114.695Z"
            fill="#232323" />
        <path
            d="M120.735 48.1101V42.2217H121.523V46.7888L124.656 42.2217H125.404V48.1101H124.616V43.5136L121.475 48.1101H120.735ZM123.068 41.4663C122.769 41.4663 122.505 41.4022 122.278 41.2741C122.051 41.1459 121.875 40.9698 121.752 40.7456C121.629 40.524 121.571 40.2678 121.579 39.9768H122.238C122.227 40.2517 122.297 40.4733 122.449 40.6441C122.601 40.815 122.806 40.8977 123.068 40.8977C123.33 40.8977 123.535 40.8123 123.685 40.6441C123.834 40.4733 123.904 40.2517 123.888 39.9768H124.552C124.558 40.2624 124.499 40.5187 124.373 40.7429C124.248 40.9671 124.072 41.1433 123.845 41.2714C123.618 41.3995 123.359 41.4636 123.068 41.4636V41.4663Z"
            fill="#232323" />
    </g>
    <defs>
        <clipPath id="clip0_228_1952">
            <rect width="150" height="57" fill="white" />
        </clipPath>
    </defs>
</svg>
    