<svg width="34" height="35" viewBox="0 0 34 35" fill="none" xmlns="http://www.w3.org/2000/svg">
    <path
        d="M0 17.75C0 7.94694 7.72619 0 17.257 0C26.7877 0 34.5139 7.94694 34.5139 17.75C34.5139 27.5531 26.7877 35.5 17.257 35.5C7.72619 35.5 0 27.5531 0 17.75Z"
        fill="#232323" />
    <path fill-rule="evenodd" clip-rule="evenodd"
        d="M16.7398 0C16.6529 7.19561 16.1754 11.2399 13.5515 13.9387C10.9277 16.6375 6.99573 17.1287 0 17.2181V18.2819C6.99573 18.3713 10.9277 18.8625 13.5515 21.5613C16.1754 24.2601 16.6529 28.3044 16.7398 35.5H17.7741C17.861 28.3044 18.3386 24.2601 20.9624 21.5613C23.5862 18.8625 27.5181 18.3713 34.5139 18.2819V17.2181C27.5181 17.1287 23.5862 16.6375 20.9624 13.9387C18.3385 11.2399 17.861 7.19556 17.7741 0H16.7398Z"
        fill="white" />
</svg>
    