<svg width="35" height="35" viewBox="0 0 35 35" fill="none" xmlns="http://www.w3.org/2000/svg">
    <g clip-path="url(#clip0_277_1212)">
    <path fill-rule="evenodd" clip-rule="evenodd" d="M17.5 35C27.1649 35 35 27.1649 35 17.5C35 7.83506 27.1649 0 17.5 0C7.83506 0 0 7.83506 0 17.5C0 27.1649 7.83506 35 17.5 35ZM8.75 13.7871C8.75 11.0096 11.0098 8.75 13.7871 8.75H21.2129C23.9904 8.75 26.25 11.0098 26.25 13.7871V21.281C26.25 24.0583 23.9904 26.3181 21.2129 26.3181H13.7871C11.0096 26.3181 8.75 24.0583 8.75 21.281V13.7871ZM21.2129 24.6511C23.0711 24.6511 24.583 23.1392 24.583 21.281V13.7871C24.583 11.9289 23.0711 10.417 21.2129 10.417H13.7871C11.9289 10.417 10.417 11.9289 10.417 13.7871V21.281C10.417 23.1392 11.9289 24.6511 13.7871 24.6511H21.2129ZM12.9459 17.5019C12.9459 15.0097 14.9953 12.9823 17.5139 12.9823C20.0324 12.9823 22.0819 15.0097 22.0819 17.5019C22.0819 19.9938 20.0324 22.0212 17.5139 22.0212C14.9951 22.0212 12.9459 19.9938 12.9459 17.5019ZM14.6098 17.5019C14.6098 19.0762 15.9124 20.3573 17.5139 20.3573C19.1153 20.3573 20.418 19.0764 20.418 17.5019C20.418 15.9273 19.1151 14.6464 17.5139 14.6464C15.9124 14.6464 14.6098 15.9273 14.6098 17.5019ZM22.1637 13.8724C22.7573 13.8724 23.2384 13.3912 23.2384 12.7976C23.2384 12.2041 22.7573 11.7228 22.1637 11.7228C21.5701 11.7228 21.0889 12.2041 21.0889 12.7976C21.0889 13.3912 21.5701 13.8724 22.1637 13.8724Z" fill="#232323"/>
    </g>
    <defs>
    <clipPath id="clip0_277_1212">
    <rect width="35" height="35" fill="white"/>
    </clipPath>
    </defs>
    </svg>
    