<svg width="35" height="36" viewBox="0 0 35 36" fill="none" xmlns="http://www.w3.org/2000/svg">
    <path fill-rule="evenodd" clip-rule="evenodd"
        d="M17.257 35.5C26.7877 35.5 34.5139 27.5531 34.5139 17.75C34.5139 7.94694 26.7877 0 17.257 0C7.72619 0 0 7.94694 0 17.75C0 27.5531 7.72619 35.5 17.257 35.5ZM21.3038 18.3192C22.4492 17.3989 23.3109 17.9442 23.6163 18.5918C24.1617 19.7279 23.5508 20.2847 22.1656 21.205C20.9875 21.9889 19.384 22.2956 18.3478 22.3979L19.2095 23.3182L22.46 26.7038C22.9619 27.2265 22.9619 28.0559 22.46 28.5444L22.3182 28.7262C21.8165 29.2375 21.0202 29.2375 20.5294 28.7262C19.7003 27.8628 18.5113 26.6243 17.257 25.3405L14.0173 28.7262C13.5264 29.2375 12.7192 29.2375 12.2283 28.7262L12.0757 28.5444C11.5848 28.0559 11.5848 27.2265 12.0757 26.7038C12.8772 25.8579 14.0452 24.652 15.2617 23.3961L15.3372 23.3182L16.2098 22.4093C15.1626 22.2956 13.5373 22.0002 12.3483 21.205C10.963 20.2847 10.3522 19.7279 10.8976 18.5918C11.203 17.9442 12.0647 17.3989 13.2101 18.3192C14.7699 19.6143 17.257 19.6143 17.257 19.6143C17.257 19.6143 19.744 19.6143 21.3038 18.3192ZM19.984 12.1385C19.984 10.582 18.7622 9.30954 17.257 9.30954C15.7516 9.30954 14.5299 10.582 14.5299 12.1385C14.5299 13.7064 15.7516 14.9675 17.257 14.9675C18.7622 14.9675 19.984 13.7064 19.984 12.1385ZM22.7764 12.1385C22.7764 15.3197 20.3112 17.8874 17.257 17.8874C14.2027 17.8874 11.7375 15.3197 11.7375 12.1385C11.7375 10.6138 12.319 9.15159 13.3541 8.07345C14.3892 6.99531 15.7931 6.38966 17.257 6.38966C18.7208 6.38966 20.1247 6.99531 21.1598 8.07345C22.1949 9.15159 22.7764 10.6138 22.7764 12.1385Z"
        fill="#232323" />
</svg>
    