<svg width="34" height="35" viewBox="0 0 34 35" fill="none" xmlns="http://www.w3.org/2000/svg">
    <path fill-rule="evenodd" clip-rule="evenodd"
        d="M17 35C26.3888 35 34 27.1649 34 17.5C34 7.83506 26.3888 0 17 0C7.6112 0 0 7.83506 0 17.5C0 27.1649 7.6112 35 17 35ZM24.4722 11.1806C24.6033 9.6475 23.0307 10.2787 23.0307 10.2787C21.8695 10.7736 20.6719 11.2764 19.4615 11.7847C15.7083 13.3607 11.8307 14.9888 8.52758 16.5913C6.73653 17.2676 7.78492 17.944 7.78492 17.944L10.6244 18.8458C11.9349 19.2516 12.6339 18.8007 12.6339 18.8007L18.7497 14.5172C20.9339 12.9841 20.4097 14.2467 19.8855 14.7877L15.2986 19.2966C14.5997 19.9279 14.9491 20.469 15.2549 20.7395C16.1216 21.5267 18.2535 22.9668 19.1842 23.5956C19.4264 23.7592 19.5872 23.8678 19.6233 23.8958C19.8418 24.0762 21.0212 24.8877 21.8075 24.7074C22.5939 24.527 22.6812 23.4899 22.6812 23.4899L23.7296 16.4109C23.8869 15.1819 24.0673 14.0007 24.2113 13.0572C24.3473 12.1661 24.451 11.4872 24.4722 11.1806Z"
        fill="#232323" />
</svg>
    