<svg width="34" height="35" viewBox="0 0 34 35" fill="none" xmlns="http://www.w3.org/2000/svg">
    <path fill-rule="evenodd" clip-rule="evenodd"
        d="M17 35C26.3888 35 34 27.1649 34 17.5C34 7.83506 26.3888 0 17 0C7.6112 0 0 7.83506 0 17.5C0 27.1649 7.6112 35 17 35ZM23.0858 11.4189C24.3908 11.5403 25.1261 12.3622 25.2873 13.6724C25.4001 14.5864 25.5 15.8957 25.5 17.3035C25.5 19.7759 25.2873 21.2053 25.2873 21.2053C25.0871 22.5102 24.4743 23.2188 23.1857 23.3688C21.7459 23.5363 18.5077 23.6134 17.0689 23.6134C15.5797 23.6134 12.5679 23.5491 11.0645 23.4202C9.77219 23.3095 8.89035 22.5664 8.71269 21.2439C8.58349 20.2809 8.5 19.1363 8.5 17.3164C8.5 15.2903 8.57097 14.4331 8.73768 13.5178C8.97568 12.2116 9.58115 11.5789 10.9642 11.4318C12.4156 11.2772 13.7871 11.2 16.8562 11.2C18.3566 11.2 21.5914 11.28 23.0858 11.4189ZM15.1924 14.8355V19.8662L19.8457 17.3252L15.1924 14.8355Z"
        fill="#232323" />
</svg>
    